<svg width="32" height="32" viewBox="0 0 32 32" fill="none" xmlns="http://www.w3.org/2000/svg">
<path d="M26.9203 17.1374C26.7553 14.8643 26.4835 14.4216 26.3808 14.2551C26.1447 13.8704 25.767 13.6189 25.3673 13.3551C25.3447 13.3405 25.3252 13.3195 25.3103 13.294C25.2954 13.2685 25.2855 13.2391 25.2815 13.2081C25.2774 13.1772 25.2793 13.1454 25.287 13.1155C25.2946 13.0856 25.3078 13.0582 25.3256 13.0356C25.3996 12.9435 25.4565 12.8328 25.4923 12.7111C25.5282 12.5895 25.5421 12.4597 25.5332 12.3308C25.516 12.1022 25.4294 11.8899 25.2905 11.736C25.1517 11.5821 24.9708 11.4979 24.7837 11.5H24.0686C24.038 11.5002 24.0074 11.5027 23.9769 11.5073C23.9561 11.4962 23.9344 11.4874 23.9123 11.4809C23.4888 10.3823 22.9089 8.87819 21.7069 8.14412C19.9242 7.05625 16.6402 7 15.9985 7C15.3567 7 12.0727 7.05625 10.2923 8.14244C9.09038 8.8765 8.5105 10.3806 8.08694 11.4792L8.08327 11.4882C8.06215 11.4918 8.0414 11.4982 8.02139 11.5073C7.99097 11.5027 7.96036 11.5002 7.92971 11.5H7.21323C7.02615 11.4979 6.84526 11.5821 6.70644 11.736C6.56761 11.8899 6.48098 12.1022 6.46374 12.3308C6.4556 12.4594 6.47019 12.5887 6.5065 12.7097C6.54281 12.8308 6.6 12.9408 6.67415 13.0322C6.69189 13.0548 6.70511 13.0822 6.71276 13.1121C6.72041 13.1421 6.72229 13.1738 6.71824 13.2048C6.7142 13.2358 6.70434 13.2652 6.68945 13.2907C6.67456 13.3162 6.65504 13.3371 6.63244 13.3517C6.23271 13.6172 5.85315 13.8687 5.61891 14.2517C5.51623 14.4205 5.24486 14.8609 5.07937 17.134C4.98769 18.4131 4.97394 19.7373 5.04591 20.59C5.19672 22.3619 5.47956 23.4329 5.49148 23.4773C5.53488 23.639 5.61477 23.7823 5.72187 23.8905C5.82898 23.9988 5.9589 24.0675 6.09657 24.0887V24.1C6.09657 24.3387 6.17384 24.5676 6.31139 24.7364C6.44893 24.9052 6.63549 25 6.83001 25H9.39705C9.59157 25 9.77813 24.9052 9.91567 24.7364C10.0532 24.5676 10.1305 24.3387 10.1305 24.1C10.5252 24.1 10.7998 24.0134 11.0908 23.9211C11.5111 23.7822 11.9407 23.6897 12.3744 23.6449C13.7729 23.4812 15.1637 23.425 15.9985 23.425C16.8163 23.425 18.2685 23.4812 19.6694 23.6449C20.1048 23.6898 20.536 23.7826 20.9579 23.9222C21.2366 24.01 21.5011 24.091 21.8674 24.0994C21.8674 24.3381 21.9447 24.5671 22.0822 24.7358C22.2198 24.9046 22.4063 24.9994 22.6008 24.9994H25.1679C25.3624 24.9994 25.5489 24.9046 25.6865 24.7358C25.824 24.5671 25.9013 24.3381 25.9013 24.0994V24.0927C26.0393 24.0718 26.1696 24.0033 26.2771 23.895C26.3845 23.7868 26.4647 23.6433 26.5082 23.4812C26.5202 23.4368 26.803 22.3658 26.9538 20.5939C27.0258 19.7406 27.0129 18.4187 26.9203 17.1374ZM9.41264 12.2487C9.77936 11.2924 10.1988 10.2102 10.9455 9.754C12.0246 9.09475 14.2611 8.79775 15.9985 8.79775C17.7358 8.79775 19.9724 9.0925 21.0514 9.754C21.7982 10.2102 22.2158 11.293 22.5843 12.2487L22.6302 12.3707C22.657 12.4402 22.6688 12.517 22.6646 12.5937C22.6603 12.6704 22.6402 12.7445 22.606 12.8089C22.5718 12.8733 22.5247 12.9259 22.4692 12.9617C22.4138 12.9974 22.3517 13.0151 22.2891 13.0131C20.7658 12.9625 17.557 12.8005 15.9985 12.8005C14.4399 12.8005 11.2311 12.9664 9.70555 13.0171C9.64292 13.0191 9.58092 13.0014 9.52545 12.9656C9.46998 12.9299 9.4229 12.8773 9.3887 12.8129C9.3545 12.7484 9.33432 12.6743 9.33008 12.5976C9.32585 12.5209 9.3377 12.4442 9.3645 12.3747C9.38055 12.3331 9.39751 12.2909 9.41264 12.2487ZM9.95951 16.7279C9.17097 16.8443 8.37739 16.9018 7.58316 16.9C7.09725 16.9 6.59622 16.7312 6.50317 16.2002C6.43945 15.8431 6.44633 15.6423 6.48071 15.4403C6.50958 15.2688 6.55542 15.1439 6.78463 15.1C7.38055 14.9875 7.7138 15.1287 8.68928 15.4814C9.33608 15.7148 9.80274 16.0259 10.0686 16.2722C10.202 16.3937 10.131 16.711 9.95951 16.7279ZM20.1076 21.3404C19.5043 21.4247 18.2978 21.3938 16.0122 21.3938C13.7266 21.3938 12.5206 21.4247 11.9173 21.3404C11.2948 21.2554 10.5013 20.5332 11.0432 19.8897C11.4039 19.4656 12.2456 19.1483 13.3663 18.97C14.4871 18.7917 14.9616 18.7 16.0076 18.7C17.0537 18.7 17.48 18.7562 18.649 18.9706C19.8179 19.1849 20.7012 19.5061 20.9721 19.8903C21.4663 20.5787 20.7296 21.2509 20.1076 21.3438V21.3404ZM25.4938 16.1997C25.4021 16.7329 24.8979 16.8994 24.4138 16.8994C23.6044 16.8997 22.7956 16.8422 21.9916 16.7273C21.8513 16.711 21.7862 16.4089 21.9284 16.2717C22.1901 16.0191 22.6618 15.7142 23.3077 15.4808C24.2832 15.1281 24.8456 14.9869 25.3288 15.1045C25.4466 15.1332 25.5089 15.2884 25.5163 15.3857C25.5486 15.6567 25.541 15.9326 25.4938 16.2002V16.1997Z" fill="#8C8C8C"/>
<rect x="0.5" y="0.5" width="31" height="31" rx="3.5" stroke="#E2E2E2"/>
</svg>
