<svg width="32" height="32" viewBox="0 0 32 32" fill="none" xmlns="http://www.w3.org/2000/svg">
<path d="M23.9598 18.9488C23.9698 18.7988 23.9998 18.6488 23.9998 18.4988V18.9988L23.9598 18.9488ZM13.9998 18.4988C13.9998 19.2088 14.1498 19.8888 14.4198 20.4988H8.99982V21.4988C8.99982 22.0488 8.54982 22.4988 7.99982 22.4988H6.99982C6.44982 22.4988 5.99982 22.0488 5.99982 21.4988V13.4988L8.07982 7.49878C8.27982 6.91878 8.83982 6.49878 9.49982 6.49878H20.4998C21.1598 6.49878 21.7198 6.91878 21.9198 7.49878L23.9998 13.4988V18.4988C23.9998 15.7388 21.7598 13.4988 18.9998 13.4988C16.2398 13.4988 13.9998 15.7388 13.9998 18.4988ZM10.9998 15.9988C10.9998 15.1688 10.3298 14.4988 9.49982 14.4988C8.66982 14.4988 7.99982 15.1688 7.99982 15.9988C7.99982 16.8288 8.66982 17.4988 9.49982 17.4988C10.3298 17.4988 10.9998 16.8288 10.9998 15.9988ZM21.9998 12.4988L20.4998 7.99878H9.49982L7.99982 12.4988H21.9998ZM25.8698 23.6888L21.7598 19.5788C22.1698 18.5388 21.9398 17.3188 21.0798 16.4688C20.1798 15.5588 18.8298 15.3788 17.7398 15.8788L19.6798 17.8188L18.3298 19.1788L16.3398 17.2288C15.7998 18.3188 16.0498 19.6688 16.9298 20.5788C17.327 20.9839 17.8339 21.2641 18.3882 21.385C18.9425 21.5058 19.5201 21.4619 20.0498 21.2588L24.1598 25.3588C24.3398 25.5488 24.6098 25.5488 24.7898 25.3588L25.8298 24.3288C26.0498 24.1488 26.0498 23.8288 25.8698 23.6888Z" fill="#8C8C8C"/>
<rect x="0.5" y="0.5" width="31" height="31" rx="3.5" stroke="#E2E2E2"/>
</svg>
