<svg width="32" height="32" viewBox="0 0 32 32" fill="none" xmlns="http://www.w3.org/2000/svg">
<path d="M13.075 25C12.8083 25 12.5543 24.95 12.313 24.85C12.0717 24.75 11.859 24.6083 11.675 24.425L7.575 20.325C7.39167 20.1417 7.25 19.929 7.15 19.687C7.05 19.445 7 19.191 7 18.925V13.075C7 12.8083 7.05 12.5543 7.15 12.313C7.25 12.0717 7.39167 11.859 7.575 11.675L11.675 7.575C11.8583 7.39167 12.071 7.25 12.313 7.15C12.555 7.05 12.809 7 13.075 7H18.925C19.1917 7 19.446 7.05 19.688 7.15C19.93 7.25 20.1423 7.39167 20.325 7.575L24.425 11.675C24.6083 11.8583 24.75 12.071 24.85 12.313C24.95 12.555 25 12.809 25 13.075V18.925C25 19.1917 24.95 19.446 24.85 19.688C24.75 19.93 24.6083 20.1423 24.425 20.325L20.325 24.425C20.1417 24.6083 19.929 24.75 19.687 24.85C19.445 24.95 19.191 25 18.925 25H13.075ZM16 21C16.2833 21 16.521 20.904 16.713 20.712C16.905 20.52 17.0007 20.2827 17 20C17 19.7167 16.904 19.479 16.712 19.287C16.52 19.095 16.2827 18.9993 16 19C15.7167 19 15.479 19.096 15.287 19.288C15.095 19.48 14.9993 19.7173 15 20C15 20.2833 15.096 20.521 15.288 20.713C15.48 20.905 15.7173 21.0007 16 21ZM16 17C16.2833 17 16.521 16.904 16.713 16.712C16.905 16.52 17.0007 16.2827 17 16V12C17 11.7167 16.904 11.479 16.712 11.287C16.52 11.095 16.2827 10.9993 16 11C15.7167 11 15.479 11.096 15.287 11.288C15.095 11.48 14.9993 11.7173 15 12V16C15 16.2833 15.096 16.521 15.288 16.713C15.48 16.905 15.7173 17.0007 16 17Z" fill="#8C8C8C"/>
<rect x="0.5" y="0.5" width="31" height="31" rx="3.5" stroke="#E2E2E2"/>
</svg>
