<svg width="32" height="32" viewBox="0 0 32 32" fill="none" xmlns="http://www.w3.org/2000/svg">
<path d="M7.56926 21.3262C7.63175 21.5976 7.76452 21.8479 7.95425 22.0518C8.14398 22.2557 8.384 22.4062 8.65024 22.4881L8.81225 23.2H8.79875V25H23.1999V23.2H11.2136C11.2255 23.1168 11.2233 23.0323 11.2073 22.9498L11.0309 22.1731L20.3529 20.0527L20.5294 20.8294C20.5764 21.0355 20.7032 21.2144 20.8821 21.327C21.061 21.4396 21.2773 21.4765 21.4834 21.4297L22.2602 21.2524C22.3623 21.2292 22.4588 21.1862 22.5443 21.1257C22.6297 21.0652 22.7024 20.9884 22.7581 20.8998C22.8139 20.8112 22.8516 20.7125 22.8692 20.6093C22.8868 20.5061 22.8838 20.4005 22.8605 20.2984L22.6346 19.3057C23.036 18.9313 23.2377 18.3643 23.1072 17.791L22.5761 15.46C22.5117 15.1792 22.3719 14.9212 22.1717 14.714C21.9715 14.5067 21.7186 14.3579 21.4402 14.2837L19.596 11.2435C19.324 10.7968 18.9187 10.4468 18.4371 10.2429C17.9555 10.0389 17.4221 9.99132 16.912 10.1068L9.83023 11.7178C9.31961 11.8335 8.85838 12.107 8.51199 12.4995C8.1656 12.8921 7.95164 13.3838 7.90048 13.9048L7.55215 17.4436C7.33368 17.6312 7.17047 17.8748 7.08008 18.1481C6.98968 18.4215 6.97552 18.7144 7.03912 18.9952L7.56926 21.3262ZM10.2875 20.707C10.1345 20.7419 9.97608 20.7463 9.82137 20.7199C9.66667 20.6936 9.51867 20.637 9.38582 20.5535C9.25297 20.47 9.13787 20.3611 9.04711 20.2331C8.95634 20.1051 8.89167 19.9604 8.85681 19.8074C8.82194 19.6545 8.81755 19.4961 8.84389 19.3414C8.87023 19.1867 8.92678 19.0387 9.01032 18.9059C9.09385 18.773 9.20274 18.6579 9.33076 18.5672C9.45877 18.4764 9.60342 18.4118 9.75642 18.3769C10.0654 18.3065 10.3898 18.3617 10.6581 18.5304C10.9264 18.6991 11.1167 18.9675 11.1871 19.2765C11.2575 19.5854 11.2023 19.9097 11.0336 20.178C10.8649 20.4463 10.5965 20.6366 10.2875 20.707ZM20.388 18.4102C20.2324 18.453 20.0697 18.4638 19.9098 18.442C19.7499 18.4202 19.5961 18.3663 19.4576 18.2834C19.319 18.2005 19.1988 18.0905 19.1039 17.9599C19.0091 17.8293 18.9417 17.6809 18.9059 17.5235C18.87 17.3662 18.8663 17.2032 18.8951 17.0444C18.9239 16.8856 18.9846 16.7343 19.0735 16.5996C19.1624 16.4649 19.2776 16.3495 19.4123 16.2606C19.5469 16.1716 19.6982 16.1108 19.857 16.0819C20.1599 16.0267 20.4724 16.0906 20.7295 16.2601C20.9865 16.4296 21.1681 16.6918 21.2366 16.992C21.3051 17.2922 21.255 17.6072 21.097 17.8714C20.9389 18.1356 20.6849 18.3286 20.388 18.4102ZM10.229 13.4728L17.3116 11.8609C17.4535 11.8288 17.6019 11.8421 17.7359 11.8987C17.8699 11.9554 17.9828 12.0526 18.0587 12.1768L19.4853 14.5285L18.9758 14.6446L9.93374 16.7029L9.4225 16.819L9.69162 14.0812C9.70611 13.9363 9.76578 13.7996 9.8622 13.6904C9.95863 13.5812 10.0869 13.5051 10.229 13.4728ZM21.7643 8.8L20.4997 7L20.0496 9.7L22.2998 13.3L25 14.2L23.1999 11.9149L25 11.0752L23.1999 10.2355L25 7L21.7643 8.8Z" fill="#8C8C8C"/>
<rect x="0.5" y="0.5" width="31" height="31" rx="3.5" stroke="#E2E2E2"/>
</svg>
